<?xml version="1.0" standalone="no"?>
<svg xmlns="http://www.w3.org/2000/svg" width="500" height="500"><defs><clipPath id="clip-path-dot-color"><rect x="12" y="183" width="19" height="19" transform="rotate(0,21.5,192.5)"/><rect x="12" y="259" width="19" height="19" transform="rotate(0,21.5,268.5)"/><rect x="12" y="297" width="19" height="19" transform="rotate(0,21.5,306.5)"/><rect x="31" y="164" width="19" height="19" transform="rotate(0,40.5,173.5)"/><rect x="31" y="221" width="19" height="19" transform="rotate(0,40.5,230.5)"/><rect x="31" y="259" width="19" height="19" transform="rotate(0,40.5,268.5)"/><rect x="31" y="316" width="19" height="19" transform="rotate(0,40.5,325.5)"/><rect x="50" y="164" width="19" height="19" transform="rotate(0,59.5,173.5)"/><rect x="50" y="183" width="19" height="19" transform="rotate(0,59.5,192.5)"/><rect x="50" y="221" width="19" height="19" transform="rotate(0,59.5,230.5)"/><rect x="50" y="316" width="19" height="19" transform="rotate(0,59.5,325.5)"/><rect x="69" y="183" width="19" height="19" transform="rotate(0,78.5,192.5)"/><rect x="69" y="278" width="19" height="19" transform="rotate(0,78.5,287.5)"/><rect x="69" y="297" width="19" height="19" transform="rotate(0,78.5,306.5)"/><rect x="88" y="183" width="19" height="19" transform="rotate(0,97.5,192.5)"/><rect x="88" y="240" width="19" height="19" transform="rotate(0,97.5,249.5)"/><rect x="88" y="278" width="19" height="19" transform="rotate(0,97.5,287.5)"/><rect x="88" y="297" width="19" height="19" transform="rotate(0,97.5,306.5)"/><rect x="88" y="316" width="19" height="19" transform="rotate(0,97.5,325.5)"/><rect x="107" y="183" width="19" height="19" transform="rotate(0,116.5,192.5)"/><rect x="107" y="202" width="19" height="19" transform="rotate(0,116.5,211.5)"/><rect x="107" y="221" width="19" height="19" transform="rotate(0,116.5,230.5)"/><rect x="107" y="259" width="19" height="19" transform="rotate(0,116.5,268.5)"/><rect x="126" y="164" width="19" height="19" transform="rotate(0,135.5,173.5)"/><rect x="126" y="202" width="19" height="19" transform="rotate(0,135.5,211.5)"/><rect x="126" y="240" width="19" height="19" transform="rotate(0,135.5,249.5)"/><rect x="126" y="278" width="19" height="19" transform="rotate(0,135.5,287.5)"/><rect x="126" y="316" width="19" height="19" transform="rotate(0,135.5,325.5)"/><rect x="145" y="202" width="19" height="19" transform="rotate(0,154.5,211.5)"/><rect x="145" y="221" width="19" height="19" transform="rotate(0,154.5,230.5)"/><rect x="145" y="240" width="19" height="19" transform="rotate(0,154.5,249.5)"/><rect x="145" y="297" width="19" height="19" transform="rotate(0,154.5,306.5)"/><rect x="164" y="31" width="19" height="19" transform="rotate(0,173.5,40.5)"/><rect x="164" y="50" width="19" height="19" transform="rotate(0,173.5,59.5)"/><rect x="164" y="69" width="19" height="19" transform="rotate(0,173.5,78.5)"/><rect x="164" y="107" width="19" height="19" transform="rotate(0,173.5,116.5)"/><rect x="164" y="126" width="19" height="19" transform="rotate(0,173.5,135.5)"/><rect x="164" y="202" width="19" height="19" transform="rotate(0,173.5,211.5)"/><rect x="164" y="221" width="19" height="19" transform="rotate(0,173.5,230.5)"/><rect x="164" y="240" width="19" height="19" transform="rotate(0,173.5,249.5)"/><rect x="164" y="259" width="19" height="19" transform="rotate(0,173.5,268.5)"/><rect x="164" y="316" width="19" height="19" transform="rotate(0,173.5,325.5)"/><rect x="164" y="430" width="19" height="19" transform="rotate(0,173.5,439.5)"/><rect x="164" y="449" width="19" height="19" transform="rotate(0,173.5,458.5)"/><rect x="183" y="31" width="19" height="19" transform="rotate(0,192.5,40.5)"/><rect x="183" y="107" width="19" height="19" transform="rotate(0,192.5,116.5)"/><rect x="183" y="145" width="19" height="19" transform="rotate(0,192.5,154.5)"/><rect x="183" y="164" width="19" height="19" transform="rotate(0,192.5,173.5)"/><rect x="183" y="183" width="19" height="19" transform="rotate(0,192.5,192.5)"/><rect x="183" y="240" width="19" height="19" transform="rotate(0,192.5,249.5)"/><rect x="183" y="259" width="19" height="19" transform="rotate(0,192.5,268.5)"/><rect x="183" y="278" width="19" height="19" transform="rotate(0,192.5,287.5)"/><rect x="183" y="316" width="19" height="19" transform="rotate(0,192.5,325.5)"/><rect x="183" y="373" width="19" height="19" transform="rotate(0,192.5,382.5)"/><rect x="183" y="449" width="19" height="19" transform="rotate(0,192.5,458.5)"/><rect x="202" y="50" width="19" height="19" transform="rotate(0,211.5,59.5)"/><rect x="202" y="69" width="19" height="19" transform="rotate(0,211.5,78.5)"/><rect x="202" y="88" width="19" height="19" transform="rotate(0,211.5,97.5)"/><rect x="202" y="107" width="19" height="19" transform="rotate(0,211.5,116.5)"/><rect x="202" y="126" width="19" height="19" transform="rotate(0,211.5,135.5)"/><rect x="202" y="164" width="19" height="19" transform="rotate(0,211.5,173.5)"/><rect x="202" y="183" width="19" height="19" transform="rotate(0,211.5,192.5)"/><rect x="202" y="240" width="19" height="19" transform="rotate(0,211.5,249.5)"/><rect x="202" y="259" width="19" height="19" transform="rotate(0,211.5,268.5)"/><rect x="202" y="335" width="19" height="19" transform="rotate(0,211.5,344.5)"/><rect x="202" y="392" width="19" height="19" transform="rotate(0,211.5,401.5)"/><rect x="221" y="12" width="19" height="19" transform="rotate(0,230.5,21.5)"/><rect x="221" y="50" width="19" height="19" transform="rotate(0,230.5,59.5)"/><rect x="221" y="107" width="19" height="19" transform="rotate(0,230.5,116.5)"/><rect x="221" y="145" width="19" height="19" transform="rotate(0,230.5,154.5)"/><rect x="221" y="202" width="19" height="19" transform="rotate(0,230.5,211.5)"/><rect x="221" y="221" width="19" height="19" transform="rotate(0,230.5,230.5)"/><rect x="221" y="240" width="19" height="19" transform="rotate(0,230.5,249.5)"/><rect x="221" y="297" width="19" height="19" transform="rotate(0,230.5,306.5)"/><rect x="221" y="335" width="19" height="19" transform="rotate(0,230.5,344.5)"/><rect x="221" y="411" width="19" height="19" transform="rotate(0,230.5,420.5)"/><rect x="221" y="430" width="19" height="19" transform="rotate(0,230.5,439.5)"/><rect x="240" y="12" width="19" height="19" transform="rotate(0,249.5,21.5)"/><rect x="240" y="50" width="19" height="19" transform="rotate(0,249.5,59.5)"/><rect x="240" y="88" width="19" height="19" transform="rotate(0,249.5,97.5)"/><rect x="240" y="107" width="19" height="19" transform="rotate(0,249.5,116.5)"/><rect x="240" y="126" width="19" height="19" transform="rotate(0,249.5,135.5)"/><rect x="240" y="145" width="19" height="19" transform="rotate(0,249.5,154.5)"/><rect x="240" y="183" width="19" height="19" transform="rotate(0,249.5,192.5)"/><rect x="240" y="278" width="19" height="19" transform="rotate(0,249.5,287.5)"/><rect x="240" y="335" width="19" height="19" transform="rotate(0,249.5,344.5)"/><rect x="240" y="354" width="19" height="19" transform="rotate(0,249.5,363.5)"/><rect x="240" y="392" width="19" height="19" transform="rotate(0,249.5,401.5)"/><rect x="240" y="430" width="19" height="19" transform="rotate(0,249.5,439.5)"/><rect x="240" y="449" width="19" height="19" transform="rotate(0,249.5,458.5)"/><rect x="240" y="468" width="19" height="19" transform="rotate(0,249.5,477.5)"/><rect x="259" y="50" width="19" height="19" transform="rotate(0,268.5,59.5)"/><rect x="259" y="107" width="19" height="19" transform="rotate(0,268.5,116.5)"/><rect x="259" y="145" width="19" height="19" transform="rotate(0,268.5,154.5)"/><rect x="259" y="164" width="19" height="19" transform="rotate(0,268.5,173.5)"/><rect x="259" y="183" width="19" height="19" transform="rotate(0,268.5,192.5)"/><rect x="259" y="221" width="19" height="19" transform="rotate(0,268.5,230.5)"/><rect x="259" y="240" width="19" height="19" transform="rotate(0,268.5,249.5)"/><rect x="259" y="278" width="19" height="19" transform="rotate(0,268.5,287.5)"/><rect x="259" y="297" width="19" height="19" transform="rotate(0,268.5,306.5)"/><rect x="259" y="335" width="19" height="19" transform="rotate(0,268.5,344.5)"/><rect x="259" y="354" width="19" height="19" transform="rotate(0,268.5,363.5)"/><rect x="259" y="373" width="19" height="19" transform="rotate(0,268.5,382.5)"/><rect x="259" y="392" width="19" height="19" transform="rotate(0,268.5,401.5)"/><rect x="259" y="468" width="19" height="19" transform="rotate(0,268.5,477.5)"/><rect x="278" y="31" width="19" height="19" transform="rotate(0,287.5,40.5)"/><rect x="278" y="50" width="19" height="19" transform="rotate(0,287.5,59.5)"/><rect x="278" y="69" width="19" height="19" transform="rotate(0,287.5,78.5)"/><rect x="278" y="107" width="19" height="19" transform="rotate(0,287.5,116.5)"/><rect x="278" y="126" width="19" height="19" transform="rotate(0,287.5,135.5)"/><rect x="278" y="145" width="19" height="19" transform="rotate(0,287.5,154.5)"/><rect x="278" y="240" width="19" height="19" transform="rotate(0,287.5,249.5)"/><rect x="278" y="335" width="19" height="19" transform="rotate(0,287.5,344.5)"/><rect x="278" y="354" width="19" height="19" transform="rotate(0,287.5,363.5)"/><rect x="278" y="392" width="19" height="19" transform="rotate(0,287.5,401.5)"/><rect x="278" y="430" width="19" height="19" transform="rotate(0,287.5,439.5)"/><rect x="278" y="449" width="19" height="19" transform="rotate(0,287.5,458.5)"/><rect x="297" y="12" width="19" height="19" transform="rotate(0,306.5,21.5)"/><rect x="297" y="107" width="19" height="19" transform="rotate(0,306.5,116.5)"/><rect x="297" y="164" width="19" height="19" transform="rotate(0,306.5,173.5)"/><rect x="297" y="183" width="19" height="19" transform="rotate(0,306.5,192.5)"/><rect x="297" y="202" width="19" height="19" transform="rotate(0,306.5,211.5)"/><rect x="297" y="221" width="19" height="19" transform="rotate(0,306.5,230.5)"/><rect x="297" y="297" width="19" height="19" transform="rotate(0,306.5,306.5)"/><rect x="297" y="335" width="19" height="19" transform="rotate(0,306.5,344.5)"/><rect x="297" y="354" width="19" height="19" transform="rotate(0,306.5,363.5)"/><rect x="297" y="373" width="19" height="19" transform="rotate(0,306.5,382.5)"/><rect x="297" y="392" width="19" height="19" transform="rotate(0,306.5,401.5)"/><rect x="297" y="468" width="19" height="19" transform="rotate(0,306.5,477.5)"/><rect x="316" y="50" width="19" height="19" transform="rotate(0,325.5,59.5)"/><rect x="316" y="88" width="19" height="19" transform="rotate(0,325.5,97.5)"/><rect x="316" y="107" width="19" height="19" transform="rotate(0,325.5,116.5)"/><rect x="316" y="126" width="19" height="19" transform="rotate(0,325.5,135.5)"/><rect x="316" y="145" width="19" height="19" transform="rotate(0,325.5,154.5)"/><rect x="316" y="164" width="19" height="19" transform="rotate(0,325.5,173.5)"/><rect x="316" y="221" width="19" height="19" transform="rotate(0,325.5,230.5)"/><rect x="316" y="316" width="19" height="19" transform="rotate(0,325.5,325.5)"/><rect x="316" y="335" width="19" height="19" transform="rotate(0,325.5,344.5)"/><rect x="316" y="354" width="19" height="19" transform="rotate(0,325.5,363.5)"/><rect x="316" y="373" width="19" height="19" transform="rotate(0,325.5,382.5)"/><rect x="316" y="392" width="19" height="19" transform="rotate(0,325.5,401.5)"/><rect x="316" y="411" width="19" height="19" transform="rotate(0,325.5,420.5)"/><rect x="316" y="430" width="19" height="19" transform="rotate(0,325.5,439.5)"/><rect x="316" y="449" width="19" height="19" transform="rotate(0,325.5,458.5)"/><rect x="316" y="468" width="19" height="19" transform="rotate(0,325.5,477.5)"/><rect x="335" y="164" width="19" height="19" transform="rotate(0,344.5,173.5)"/><rect x="335" y="221" width="19" height="19" transform="rotate(0,344.5,230.5)"/><rect x="335" y="240" width="19" height="19" transform="rotate(0,344.5,249.5)"/><rect x="335" y="259" width="19" height="19" transform="rotate(0,344.5,268.5)"/><rect x="335" y="316" width="19" height="19" transform="rotate(0,344.5,325.5)"/><rect x="335" y="392" width="19" height="19" transform="rotate(0,344.5,401.5)"/><rect x="335" y="430" width="19" height="19" transform="rotate(0,344.5,439.5)"/><rect x="335" y="468" width="19" height="19" transform="rotate(0,344.5,477.5)"/><rect x="354" y="240" width="19" height="19" transform="rotate(0,363.5,249.5)"/><rect x="354" y="259" width="19" height="19" transform="rotate(0,363.5,268.5)"/><rect x="354" y="316" width="19" height="19" transform="rotate(0,363.5,325.5)"/><rect x="354" y="354" width="19" height="19" transform="rotate(0,363.5,363.5)"/><rect x="354" y="392" width="19" height="19" transform="rotate(0,363.5,401.5)"/><rect x="354" y="430" width="19" height="19" transform="rotate(0,363.5,439.5)"/><rect x="354" y="449" width="19" height="19" transform="rotate(0,363.5,458.5)"/><rect x="354" y="468" width="19" height="19" transform="rotate(0,363.5,477.5)"/><rect x="373" y="164" width="19" height="19" transform="rotate(0,382.5,173.5)"/><rect x="373" y="183" width="19" height="19" transform="rotate(0,382.5,192.5)"/><rect x="373" y="202" width="19" height="19" transform="rotate(0,382.5,211.5)"/><rect x="373" y="221" width="19" height="19" transform="rotate(0,382.5,230.5)"/><rect x="373" y="240" width="19" height="19" transform="rotate(0,382.5,249.5)"/><rect x="373" y="297" width="19" height="19" transform="rotate(0,382.5,306.5)"/><rect x="373" y="316" width="19" height="19" transform="rotate(0,382.5,325.5)"/><rect x="373" y="392" width="19" height="19" transform="rotate(0,382.5,401.5)"/><rect x="392" y="183" width="19" height="19" transform="rotate(0,401.5,192.5)"/><rect x="392" y="202" width="19" height="19" transform="rotate(0,401.5,211.5)"/><rect x="392" y="221" width="19" height="19" transform="rotate(0,401.5,230.5)"/><rect x="392" y="240" width="19" height="19" transform="rotate(0,401.5,249.5)"/><rect x="392" y="278" width="19" height="19" transform="rotate(0,401.5,287.5)"/><rect x="392" y="316" width="19" height="19" transform="rotate(0,401.5,325.5)"/><rect x="392" y="335" width="19" height="19" transform="rotate(0,401.5,344.5)"/><rect x="392" y="354" width="19" height="19" transform="rotate(0,401.5,363.5)"/><rect x="392" y="373" width="19" height="19" transform="rotate(0,401.5,382.5)"/><rect x="392" y="392" width="19" height="19" transform="rotate(0,401.5,401.5)"/><rect x="392" y="411" width="19" height="19" transform="rotate(0,401.5,420.5)"/><rect x="411" y="164" width="19" height="19" transform="rotate(0,420.5,173.5)"/><rect x="411" y="183" width="19" height="19" transform="rotate(0,420.5,192.5)"/><rect x="411" y="221" width="19" height="19" transform="rotate(0,420.5,230.5)"/><rect x="411" y="278" width="19" height="19" transform="rotate(0,420.5,287.5)"/><rect x="411" y="297" width="19" height="19" transform="rotate(0,420.5,306.5)"/><rect x="411" y="335" width="19" height="19" transform="rotate(0,420.5,344.5)"/><rect x="411" y="354" width="19" height="19" transform="rotate(0,420.5,363.5)"/><rect x="411" y="392" width="19" height="19" transform="rotate(0,420.5,401.5)"/><rect x="411" y="411" width="19" height="19" transform="rotate(0,420.5,420.5)"/><rect x="411" y="430" width="19" height="19" transform="rotate(0,420.5,439.5)"/><rect x="411" y="449" width="19" height="19" transform="rotate(0,420.5,458.5)"/><rect x="411" y="468" width="19" height="19" transform="rotate(0,420.5,477.5)"/><rect x="430" y="164" width="19" height="19" transform="rotate(0,439.5,173.5)"/><rect x="430" y="202" width="19" height="19" transform="rotate(0,439.5,211.5)"/><rect x="430" y="240" width="19" height="19" transform="rotate(0,439.5,249.5)"/><rect x="430" y="278" width="19" height="19" transform="rotate(0,439.5,287.5)"/><rect x="430" y="297" width="19" height="19" transform="rotate(0,439.5,306.5)"/><rect x="430" y="316" width="19" height="19" transform="rotate(0,439.5,325.5)"/><rect x="430" y="335" width="19" height="19" transform="rotate(0,439.5,344.5)"/><rect x="430" y="354" width="19" height="19" transform="rotate(0,439.5,363.5)"/><rect x="430" y="392" width="19" height="19" transform="rotate(0,439.5,401.5)"/><rect x="430" y="430" width="19" height="19" transform="rotate(0,439.5,439.5)"/><rect x="430" y="449" width="19" height="19" transform="rotate(0,439.5,458.5)"/><rect x="449" y="164" width="19" height="19" transform="rotate(0,458.5,173.5)"/><rect x="449" y="183" width="19" height="19" transform="rotate(0,458.5,192.5)"/><rect x="449" y="202" width="19" height="19" transform="rotate(0,458.5,211.5)"/><rect x="449" y="240" width="19" height="19" transform="rotate(0,458.5,249.5)"/><rect x="449" y="335" width="19" height="19" transform="rotate(0,458.5,344.5)"/><rect x="449" y="354" width="19" height="19" transform="rotate(0,458.5,363.5)"/><rect x="449" y="392" width="19" height="19" transform="rotate(0,458.5,401.5)"/><rect x="449" y="430" width="19" height="19" transform="rotate(0,458.5,439.5)"/><rect x="468" y="240" width="19" height="19" transform="rotate(0,477.5,249.5)"/><rect x="468" y="259" width="19" height="19" transform="rotate(0,477.5,268.5)"/><rect x="468" y="278" width="19" height="19" transform="rotate(0,477.5,287.5)"/><rect x="468" y="335" width="19" height="19" transform="rotate(0,477.5,344.5)"/><rect x="468" y="373" width="19" height="19" transform="rotate(0,477.5,382.5)"/><rect x="468" y="392" width="19" height="19" transform="rotate(0,477.5,401.5)"/><rect x="468" y="411" width="19" height="19" transform="rotate(0,477.5,420.5)"/><rect x="468" y="430" width="19" height="19" transform="rotate(0,477.5,439.5)"/><rect x="468" y="449" width="19" height="19" transform="rotate(0,477.5,458.5)"/><rect x="468" y="468" width="19" height="19" transform="rotate(0,477.5,477.5)"/></clipPath><clipPath id="clip-path-corners-square-color-0-0"><path clip-rule="evenodd" d="M 12 59.5v 38a 47.5 47.5, 0, 0, 0, 47.5 47.5h 38a 47.5 47.5, 0, 0, 0, 47.5 -47.5v -38a 47.5 47.5, 0, 0, 0, -47.5 -47.5h -38a 47.5 47.5, 0, 0, 0, -47.5 47.5M 59.5 31h 38a 28.5 28.5, 0, 0, 1, 28.5 28.5v 38a 28.5 28.5, 0, 0, 1, -28.5 28.5h -38a 28.5 28.5, 0, 0, 1, -28.5 -28.5v -38a 28.5 28.5, 0, 0, 1, 28.5 -28.5" transform="rotate(0,78.5,78.5)"/></clipPath><clipPath id="clip-path-corners-dot-color-0-0"><circle cx="78.5" cy="78.5" r="28.5" transform="rotate(0,78.5,78.5)"/></clipPath><clipPath id="clip-path-corners-square-color-1-0"><path clip-rule="evenodd" d="M 354 59.5v 38a 47.5 47.5, 0, 0, 0, 47.5 47.5h 38a 47.5 47.5, 0, 0, 0, 47.5 -47.5v -38a 47.5 47.5, 0, 0, 0, -47.5 -47.5h -38a 47.5 47.5, 0, 0, 0, -47.5 47.5M 401.5 31h 38a 28.5 28.5, 0, 0, 1, 28.5 28.5v 38a 28.5 28.5, 0, 0, 1, -28.5 28.5h -38a 28.5 28.5, 0, 0, 1, -28.5 -28.5v -38a 28.5 28.5, 0, 0, 1, 28.5 -28.5" transform="rotate(90,420.5,78.5)"/></clipPath><clipPath id="clip-path-corners-dot-color-1-0"><circle cx="420.5" cy="78.5" r="28.5" transform="rotate(90,420.5,78.5)"/></clipPath><clipPath id="clip-path-corners-square-color-0-1"><path clip-rule="evenodd" d="M 12 401.5v 38a 47.5 47.5, 0, 0, 0, 47.5 47.5h 38a 47.5 47.5, 0, 0, 0, 47.5 -47.5v -38a 47.5 47.5, 0, 0, 0, -47.5 -47.5h -38a 47.5 47.5, 0, 0, 0, -47.5 47.5M 59.5 373h 38a 28.5 28.5, 0, 0, 1, 28.5 28.5v 38a 28.5 28.5, 0, 0, 1, -28.5 28.5h -38a 28.5 28.5, 0, 0, 1, -28.5 -28.5v -38a 28.5 28.5, 0, 0, 1, 28.5 -28.5" transform="rotate(-90,78.5,420.5)"/></clipPath><clipPath id="clip-path-corners-dot-color-0-1"><circle cx="78.5" cy="420.5" r="28.5" transform="rotate(-90,78.5,420.5)"/></clipPath></defs><rect x="0" y="0" height="500" width="500" clip-path="url('#clip-path-background-color')" fill="#fff"/><rect x="0" y="0" height="500" width="500" clip-path="url('#clip-path-dot-color')" fill="#000000"/><rect x="12" y="12" height="133" width="133" clip-path="url('#clip-path-corners-square-color-0-0')" fill="#000000"/><rect x="50" y="50" height="57" width="57" clip-path="url('#clip-path-corners-dot-color-0-0')" fill="#000000"/><rect x="354" y="12" height="133" width="133" clip-path="url('#clip-path-corners-square-color-1-0')" fill="#000000"/><rect x="392" y="50" height="57" width="57" clip-path="url('#clip-path-corners-dot-color-1-0')" fill="#000000"/><rect x="12" y="354" height="133" width="133" clip-path="url('#clip-path-corners-square-color-0-1')" fill="#000000"/><rect x="50" y="392" height="57" width="57" clip-path="url('#clip-path-corners-dot-color-0-1')" fill="#000000"/></svg>